PathFileType	4	(X/Y/Z)	c:/Users/goper/Files/vsCode/490R/osim_files/A02/A02_Fast_02.trc
DataRate	CameraRate	NumFrames	NumMarkers	Units                	OrigDataRate	OrigDataStartFrame	OrigNumFrames
250.00	250.00	6	36	mm	250.0	1260	2518
                Frame#	Time	Mobility_markerset:LPSIS			Mobility_markerset:LASIS			Mobility_markerset:LTH1			Mobility_markerset:LTH2			Mobility_markerset:LTH3			Mobility_markerset:LTH4			Mobility_markerset:LLFE			Mobility_markerset:LMFE			Mobility_markerset:LSH1			Mobility_markerset:LSH2			Mobility_markerset:LSH3			Mobility_markerset:LSH4			Mobility_markerset:LLMAL			Mobility_markerset:LMMAL			Mobility_markerset:LCAL			Mobility_markerset:LMTP5			Mobility_markerset:LTOE			Mobility_markerset:LMTP1			Mobility_markerset:RPSIS			Mobility_markerset:RASIS			Mobility_markerset:RTH1			Mobility_markerset:RTH2			Mobility_markerset:RTH3			Mobility_markerset:RTH4			Mobility_markerset:RLFE			Mobility_markerset:RMFE			Mobility_markerset:RSH1			Mobility_markerset:RSH2			Mobility_markerset:RSH3			Mobility_markerset:RSH4			Mobility_markerset:RLMAL			Mobility_markerset:RMMAL			Mobility_markerset:RCAL			Mobility_markerset:RMTP1			Mobility_markerset:RTOE			Mobility_markerset:RMTP5		
		X1	Y1	Z1	X2	Y2	Z2	X3	Y3	Z3	X4	Y4	Z4	X5	Y5	Z5	X6	Y6	Z6	X7	Y7	Z7	X8	Y8	Z8	X9	Y9	Z9	X10	Y10	Z10	X11	Y11	Z11	X12	Y12	Z12	X13	Y13	Z13	X14	Y14	Z14	X15	Y15	Z15	X16	Y16	Z16	X17	Y17	Z17	X18	Y18	Z18	X19	Y19	Z19	X20	Y20	Z20	X21	Y21	Z21	X22	Y22	Z22	X23	Y23	Z23	X24	Y24	Z24	X25	Y25	Z25	X26	Y26	Z26	X27	Y27	Z27	X28	Y28	Z28	X29	Y29	Z29	X30	Y30	Z30	X31	Y31	Z31	X32	Y32	Z32	X33	Y33	Z33	X34	Y34	Z34	X35	Y35	Z35	X36	Y36	Z36

1260	5.03600	-842.23578	938.41870	312.51309	-977.38361	906.10254	410.94702	-858.92389	659.66125	432.61139	-865.28406	612.79730	432.11481	-914.29779	661.29193	459.81479	-912.40527	615.84021	453.63385	-897.52747	442.84509	425.11224	0.00000	0.00000	0.00000	-800.05237	436.80676	406.20694	-763.92072	410.32892	407.84021	-831.58984	388.46326	424.97519	-791.76801	367.39386	424.99326	-596.05786	226.23216	363.84869	-620.35669	218.42369	284.64563	-567.50934	282.45078	317.68646	-560.22278	111.79569	361.52206	-607.75708	77.58904	301.61652	-582.18213	110.05845	251.62158	-857.57141	950.19135	211.44081	0.00000	0.00000	0.00000	-1026.25757	611.66223	149.71103	-1040.75720	569.97974	150.92856	-1085.83240	625.46997	152.15395	-1091.80310	582.43982	150.83907	-1079.08948	462.92761	142.50633	-1097.21277	469.45370	274.86603	-1157.97754	289.73175	162.22577	-1162.70044	243.12379	169.89267	-1099.06567	278.76266	164.78499	-1111.39014	234.48262	175.64108	-1141.42700	82.16451	174.47096	-1152.43250	89.12949	262.56509	-1092.51428	63.01705	220.99088	-1279.17725	67.01463	254.73087	-1299.80090	80.61945	219.39505	-1271.26758	61.05246	162.86946
1261	5.04000	-847.81531	939.44611	312.83563	-983.04059	907.21802	410.77060	-867.14001	659.57855	433.50845	0.00000	0.00000	0.00000	-922.72791	661.95569	460.27072	-921.32721	616.48492	454.16119	-908.79449	443.46521	425.97934	0.00000	0.00000	0.00000	-811.48242	437.76428	407.40967	-775.29810	411.19476	409.23920	-843.06921	388.88461	425.63229	-803.14941	367.91757	425.78711	-606.69574	227.65556	364.71170	-629.98376	221.10381	285.29446	-576.76379	284.11627	319.91550	-572.35370	112.83466	361.61459	-619.68353	80.07471	300.77948	-593.22845	112.65853	251.56972	-863.20013	951.34796	211.69095	0.00000	0.00000	0.00000	-1030.50562	612.71436	149.67697	-1044.72449	570.91144	150.87711	-1090.17346	626.10455	152.10425	-1095.82263	583.01349	150.79898	-1082.28650	463.58701	142.47432	-1100.45544	470.07672	274.94281	-1159.77966	289.85138	162.22784	-1164.23682	243.19598	169.88896	-1100.98669	279.07285	165.03047	-1112.79370	234.92905	175.61589	-1141.66479	82.33343	174.57431	-1152.79761	89.16691	262.53439	-1092.70264	63.26677	221.07759	-1279.43555	66.51715	254.80450	-1300.15662	80.02268	219.44385	-1271.47107	60.66523	162.86911
1262	5.04400	-853.33521	940.62964	313.10480	-988.62604	908.31445	410.65411	-875.47198	659.56921	434.38501	0.00000	0.00000	0.00000	-931.15887	662.66724	460.76450	-930.16913	617.20416	454.74060	-920.12366	443.92792	426.27530	0.00000	0.00000	0.00000	-822.98328	438.36154	408.65714	-786.81787	411.97235	410.56830	-854.61133	389.40512	426.21835	-814.67596	368.52390	426.44495	-617.50201	228.82144	365.59299	-639.97754	223.59157	286.08658	-586.05200	285.46201	321.83441	-584.68182	113.67770	361.78485	-631.52350	82.32785	299.68726	-604.71637	115.08008	251.58633	-868.71387	952.53998	211.92418	0.00000	0.00000	0.00000	-1034.71313	613.75458	149.62650	-1048.58020	571.88867	150.78810	-1094.53894	626.74097	152.06596	-1099.77905	583.59894	150.74382	-1085.40881	464.26230	142.44041	-1103.34265	470.60880	274.92480	-1161.61243	289.96497	162.18068	-1165.80566	243.25371	169.86069	-1102.74194	279.63562	165.01488	-1114.27332	235.42705	175.64500	-1141.93127	82.49525	174.65329	-1152.75720	89.46521	262.75565	-1093.39795	63.53043	220.60118	-1279.65771	65.98978	254.83936	-1300.46973	79.46910	219.53819	-1271.69092	60.33435	162.89156
1263	5.04800	-858.90045	941.87897	313.33533	-994.35394	909.52789	410.49048	-883.79456	659.54199	435.21603	0.00000	0.00000	0.00000	-939.48236	663.43982	461.21295	-939.28101	617.90302	455.19662	0.00000	0.00000	0.00000	0.00000	0.00000	0.00000	-834.48474	439.19543	409.78986	-798.32843	412.74384	411.83310	-866.07642	389.96375	426.88895	-826.17810	369.09045	427.02408	-628.35272	229.91275	366.54651	-650.18188	225.81898	286.97125	-595.65686	286.47830	323.64041	-597.24945	114.38019	361.90512	-644.29907	84.56585	299.08911	-616.37054	117.25049	251.55914	-874.30237	953.82538	212.09204	0.00000	0.00000	0.00000	-1038.89294	614.77008	149.48952	-1052.52588	572.75195	150.69231	-1098.82898	627.20325	151.92407	-1103.39612	584.20636	150.67656	-1088.54358	464.94608	142.37454	-1106.47205	471.18112	274.94321	-1163.49609	290.04614	162.20706	-1167.20227	243.37512	169.88937	-1104.52893	280.17517	165.01447	-1115.72229	235.86743	175.63556	-1142.23083	82.64206	174.72774	-1153.11890	89.54363	262.76743	-1093.52612	63.76662	220.67853	-1279.90051	65.50591	254.93503	-1300.76721	78.98175	219.65579	-1271.86768	59.99730	162.95451
1264	5.05200	-864.39056	943.24689	313.56110	-999.93842	910.72778	410.19583	-891.94800	659.69507	436.09662	0.00000	0.00000	0.00000	-947.88464	664.27014	461.57687	-948.19684	618.72430	455.61292	-942.55212	445.30331	427.24722	0.00000	0.00000	0.00000	-846.03510	440.03171	410.85135	-809.83789	413.40747	412.98990	-877.89258	390.34497	426.97662	-837.83038	369.58066	427.46814	-639.53052	230.77913	367.36334	-660.64832	227.81535	287.82483	-605.27515	287.07797	325.15796	-609.69550	114.97501	362.24362	-656.90485	86.30621	298.56265	-628.62811	118.84046	251.96031	-879.74530	955.14557	212.24258	0.00000	0.00000	0.00000	-1043.05664	615.73700	149.40775	-1056.25891	573.67224	150.61426	-1102.84119	627.84387	151.86830	-1107.30591	584.73712	150.57745	-1091.60645	465.54910	142.31531	-1109.57397	471.74710	274.90982	-1165.30579	290.19080	162.19679	-1168.76538	243.48030	169.85675	-1106.33521	280.70517	164.97813	-1117.16345	236.34967	175.66212	-1142.49548	82.80801	174.81252	-1153.52661	89.68736	262.80145	-1093.68616	63.99492	220.74484	-1280.10205	65.08072	255.05566	-1301.07690	78.54519	219.72510	-1272.14722	59.63475	163.05431
1265	5.05600	-869.91870	944.60706	313.71756	-1005.61798	911.97363	409.93686	-900.08008	659.86444	436.88675	0.00000	0.00000	0.00000	-956.22772	665.23920	461.98987	-957.07812	619.63245	456.15219	-953.71216	445.93759	427.46375	0.00000	0.00000	0.00000	-857.36755	440.70462	411.97864	-821.37286	413.99030	414.11185	-889.55426	390.93765	427.29092	-849.52747	370.09146	427.88538	-650.66125	231.47528	368.26959	-671.37012	229.49710	288.70981	-615.39221	287.75085	326.84344	-622.59021	115.19737	362.39166	-669.89197	87.82362	298.45792	-641.06860	120.26750	252.10655	-885.30396	956.46210	212.35306	0.00000	0.00000	0.00000	-1047.05908	616.69727	149.32918	-1060.02527	574.56097	150.56671	-1107.16064	628.30444	151.76721	-1111.37708	585.28571	150.50731	-1094.57019	466.15924	142.25182	-1112.52832	472.26001	274.96307	-1166.99084	290.32492	162.14240	-1170.12317	243.56435	169.85280	-1107.96228	281.18314	164.97372	-1118.57349	236.78079	175.62314	-1142.77087	82.95893	174.88560	-1153.62708	89.68020	262.77161	-1093.83594	64.19503	220.78973	-1280.26453	64.58755	255.12190	-1301.35327	78.08887	219.80095	-1272.69543	59.21576	163.38425
